<svg width="110" height="110" viewBox="0 0 110 110" fill="none" xmlns="http://www.w3.org/2000/svg">
<path d="M105.417 87.0833C105.417 89.5145 104.451 91.8461 102.732 93.5651C101.013 95.2842 98.6813 96.25 96.2502 96.25H13.7502C11.319 96.25 8.98743 95.2842 7.26835 93.5651C5.54927 91.8461 4.5835 89.5145 4.5835 87.0833V36.6667C4.5835 34.2355 5.54927 31.9039 7.26835 30.1849C8.98743 28.4658 11.319 27.5 13.7502 27.5H32.0835L41.2502 13.75H68.7502L77.9168 27.5H96.2502C98.6813 27.5 101.013 28.4658 102.732 30.1849C104.451 31.9039 105.417 34.2355 105.417 36.6667V87.0833Z" stroke="#909090" stroke-width="9.16667" stroke-linecap="round" stroke-linejoin="round"/>
<path d="M54.9998 77.9167C65.1251 77.9167 73.3332 69.7086 73.3332 59.5833C73.3332 49.4581 65.1251 41.25 54.9998 41.25C44.8746 41.25 36.6665 49.4581 36.6665 59.5833C36.6665 69.7086 44.8746 77.9167 54.9998 77.9167Z" stroke="#909090" stroke-width="9.16667" stroke-linecap="round" stroke-linejoin="round"/>
</svg>
