<svg width="215" height="12" viewBox="0 0 215 12" fill="none" xmlns="http://www.w3.org/2000/svg">
<path d="M8.12 7.864C7.896 8.20933 7.58333 8.508 7.182 8.76C6.78067 9.012 6.3 9.138 5.74 9.138C5.28267 9.138 4.858 9.05867 4.466 8.9C4.08333 8.74133 3.752 8.522 3.472 8.242C3.192 7.962 2.97267 7.63067 2.814 7.248C2.65533 6.856 2.576 6.43133 2.576 5.974C2.576 5.51667 2.65533 5.09667 2.814 4.714C2.97267 4.33133 3.192 4 3.472 3.72C3.752 3.44 4.08333 3.22067 4.466 3.062C4.858 2.90333 5.28267 2.824 5.74 2.824C6.188 2.824 6.61733 2.922 7.028 3.118C7.448 3.314 7.77467 3.58467 8.008 3.93L7.28 4.49C7.14933 4.28467 6.944 4.098 6.664 3.93C6.39333 3.75267 6.09467 3.664 5.768 3.664C5.42267 3.664 5.11 3.72933 4.83 3.86C4.55933 3.98133 4.326 4.14933 4.13 4.364C3.94333 4.57867 3.79867 4.826 3.696 5.106C3.59333 5.37667 3.542 5.666 3.542 5.974C3.542 6.282 3.58867 6.576 3.682 6.856C3.78467 7.136 3.92933 7.38333 4.116 7.598C4.312 7.81267 4.54533 7.98533 4.816 8.116C5.08667 8.23733 5.39467 8.298 5.74 8.298C6.03867 8.298 6.33267 8.228 6.622 8.088C6.91133 7.948 7.168 7.71467 7.392 7.388L8.12 7.864ZM0.28 6.058C0.28 5.32067 0.42 4.63467 0.7 4C0.98 3.356 1.358 2.796 1.834 2.32C2.31933 1.844 2.884 1.47067 3.528 1.2C4.18133 0.92 4.87667 0.78 5.614 0.78C6.342 0.78 7.028 0.92 7.672 1.2C8.316 1.47067 8.876 1.844 9.352 2.32C9.83733 2.796 10.22 3.356 10.5 4C10.78 4.63467 10.92 5.32067 10.92 6.058C10.92 6.786 10.78 7.472 10.5 8.116C10.22 8.75067 9.83733 9.306 9.352 9.782C8.876 10.258 8.316 10.6313 7.672 10.902C7.028 11.1727 6.342 11.308 5.614 11.308C4.87667 11.308 4.18133 11.1727 3.528 10.902C2.884 10.6313 2.31933 10.258 1.834 9.782C1.358 9.306 0.98 8.75067 0.7 8.116C0.42 7.472 0.28 6.786 0.28 6.058ZM1.12 6.058C1.12 6.674 1.23667 7.25267 1.47 7.794C1.71267 8.33533 2.03467 8.81133 2.436 9.222C2.84667 9.62333 3.32267 9.94067 3.864 10.174C4.41467 10.4073 4.998 10.524 5.614 10.524C6.23 10.524 6.80867 10.4073 7.35 10.174C7.89133 9.94067 8.36267 9.62333 8.764 9.222C9.17467 8.81133 9.49667 8.33533 9.73 7.794C9.96333 7.25267 10.08 6.674 10.08 6.058C10.08 5.442 9.96333 4.86333 9.73 4.322C9.49667 3.77133 9.17467 3.29533 8.764 2.894C8.36267 2.48333 7.89133 2.16133 7.35 1.928C6.80867 1.68533 6.23 1.564 5.614 1.564C4.998 1.564 4.41467 1.68533 3.864 1.928C3.32267 2.16133 2.84667 2.48333 2.436 2.894C2.03467 3.29533 1.71267 3.77133 1.47 4.322C1.23667 4.86333 1.12 5.442 1.12 6.058ZM18.2432 9.614H18.2712L20.7492 1.088H21.9532L24.4312 9.614H24.4592L26.8812 1.088H27.9452L25.0192 11H23.8432L21.3512 2.488H21.3232L18.8312 11H17.6552L14.7292 1.088H15.7932L18.2432 9.614ZM35.4009 7.724C35.4009 8.21867 35.3122 8.676 35.1349 9.096C34.9669 9.516 34.7289 9.88 34.4209 10.188C34.1129 10.496 33.7442 10.7387 33.3149 10.916C32.8855 11.084 32.4142 11.168 31.9009 11.168C31.3969 11.168 30.9302 11.084 30.5009 10.916C30.0715 10.7387 29.7029 10.496 29.3949 10.188C29.0869 9.88 28.8442 9.516 28.6669 9.096C28.4989 8.676 28.4149 8.21867 28.4149 7.724C28.4149 7.22933 28.4989 6.772 28.6669 6.352C28.8442 5.932 29.0869 5.568 29.3949 5.26C29.7029 4.952 30.0715 4.714 30.5009 4.546C30.9302 4.36867 31.3969 4.28 31.9009 4.28C32.4142 4.28 32.8855 4.36867 33.3149 4.546C33.7442 4.714 34.1129 4.952 34.4209 5.26C34.7289 5.568 34.9669 5.932 35.1349 6.352C35.3122 6.772 35.4009 7.22933 35.4009 7.724ZM34.3929 7.724C34.3929 7.36 34.3322 7.01933 34.2109 6.702C34.0989 6.37533 33.9355 6.09533 33.7209 5.862C33.5062 5.61933 33.2449 5.428 32.9369 5.288C32.6289 5.148 32.2835 5.078 31.9009 5.078C31.5182 5.078 31.1729 5.148 30.8649 5.288C30.5662 5.428 30.3095 5.61933 30.0949 5.862C29.8802 6.09533 29.7122 6.37533 29.5909 6.702C29.4789 7.01933 29.4229 7.36 29.4229 7.724C29.4229 8.088 29.4789 8.43333 29.5909 8.76C29.7122 9.07733 29.8802 9.35733 30.0949 9.6C30.3095 9.83333 30.5662 10.02 30.8649 10.16C31.1729 10.2907 31.5182 10.356 31.9009 10.356C32.2835 10.356 32.6289 10.2907 32.9369 10.16C33.2449 10.02 33.5062 9.83333 33.7209 9.6C33.9355 9.35733 34.0989 9.07733 34.2109 8.76C34.3322 8.43333 34.3929 8.088 34.3929 7.724ZM37.4495 5.89C37.4495 5.71267 37.4448 5.484 37.4355 5.204C37.4261 4.924 37.4121 4.672 37.3935 4.448H38.3035C38.3221 4.62533 38.3361 4.82133 38.3455 5.036C38.3548 5.25067 38.3595 5.428 38.3595 5.568H38.3875C38.5741 5.18533 38.8541 4.87733 39.2275 4.644C39.6008 4.40133 40.0208 4.28 40.4875 4.28C40.6088 4.28 40.7161 4.28467 40.8095 4.294C40.9121 4.30333 41.0148 4.322 41.1175 4.35L40.9915 5.246C40.9355 5.22733 40.8421 5.20867 40.7115 5.19C40.5808 5.17133 40.4501 5.162 40.3195 5.162C40.0675 5.162 39.8248 5.20867 39.5915 5.302C39.3581 5.39533 39.1528 5.54467 38.9755 5.75C38.8075 5.946 38.6675 6.20267 38.5555 6.52C38.4528 6.828 38.4015 7.20133 38.4015 7.64V11H37.4495V5.89ZM43.4744 7.402H43.5164L46.5404 4.448H47.9124L44.6084 7.444L48.2484 11H46.8484L43.5164 7.556H43.4744V11H42.5224V0.415999H43.4744V7.402ZM54.383 7.22C54.355 6.604 54.1543 6.09533 53.781 5.694C53.417 5.28333 52.8943 5.078 52.213 5.078C51.8957 5.078 51.6017 5.13867 51.331 5.26C51.0603 5.372 50.8223 5.53067 50.617 5.736C50.4117 5.932 50.2483 6.16067 50.127 6.422C50.0057 6.674 49.9357 6.94 49.917 7.22H54.383ZM55.349 7.528C55.349 7.59333 55.349 7.66333 55.349 7.738C55.349 7.81267 55.3443 7.892 55.335 7.976H49.903C49.9123 8.30267 49.9777 8.61067 50.099 8.9C50.2203 9.18933 50.3883 9.44133 50.603 9.656C50.8177 9.87067 51.0697 10.0433 51.359 10.174C51.6483 10.2953 51.961 10.356 52.297 10.356C52.7917 10.356 53.2163 10.244 53.571 10.02C53.935 9.78667 54.2103 9.52067 54.397 9.222L55.111 9.782C54.719 10.2767 54.285 10.6313 53.809 10.846C53.3423 11.0607 52.8383 11.168 52.297 11.168C51.8117 11.168 51.359 11.084 50.939 10.916C50.5283 10.7387 50.1737 10.496 49.875 10.188C49.5763 9.88 49.3383 9.516 49.161 9.096C48.993 8.676 48.909 8.21867 48.909 7.724C48.909 7.22933 48.993 6.772 49.161 6.352C49.329 5.932 49.5623 5.568 49.861 5.26C50.1597 4.952 50.5097 4.714 50.911 4.546C51.3123 4.36867 51.7463 4.28 52.213 4.28C52.7263 4.28 53.179 4.36867 53.571 4.546C53.963 4.714 54.2897 4.94733 54.551 5.246C54.8123 5.53533 55.0083 5.876 55.139 6.268C55.279 6.66 55.349 7.08 55.349 7.528ZM61.7507 5.12L57.8307 10.174H61.8907V11H56.5707V10.328L60.4767 5.246H56.7667V4.448H61.7507V5.12ZM67.9441 5.12L64.0241 10.174H68.0841V11H62.7641V10.328L66.6701 5.246H62.9601V4.448H67.9441V5.12ZM74.3474 11H73.3394V1.088H74.3474V11ZM77.7742 4.448C77.7928 4.62533 77.8068 4.82133 77.8162 5.036C77.8255 5.25067 77.8302 5.428 77.8302 5.568H77.8582C78.0448 5.18533 78.3482 4.87733 78.7682 4.644C79.1882 4.40133 79.6315 4.28 80.0982 4.28C80.9288 4.28 81.5495 4.52733 81.9602 5.022C82.3802 5.51667 82.5902 6.17 82.5902 6.982V11H81.6382V7.374C81.6382 7.02867 81.6102 6.716 81.5542 6.436C81.4982 6.156 81.4002 5.918 81.2602 5.722C81.1295 5.51667 80.9475 5.358 80.7142 5.246C80.4902 5.134 80.2055 5.078 79.8602 5.078C79.6082 5.078 79.3608 5.12933 79.1182 5.232C78.8848 5.33467 78.6748 5.49333 78.4882 5.708C78.3015 5.91333 78.1522 6.17933 78.0402 6.506C77.9282 6.82333 77.8722 7.20133 77.8722 7.64V11H76.9202V5.89C76.9202 5.71267 76.9155 5.484 76.9062 5.204C76.8968 4.924 76.8828 4.672 76.8642 4.448H77.7742ZM88.0089 5.246H86.1609V9.068C86.1609 9.31067 86.1843 9.51133 86.2309 9.67C86.2776 9.82867 86.3429 9.95467 86.4269 10.048C86.5203 10.132 86.6276 10.1927 86.7489 10.23C86.8703 10.258 87.0009 10.272 87.1409 10.272C87.2716 10.272 87.4069 10.2533 87.5469 10.216C87.6963 10.1787 87.8363 10.1273 87.9669 10.062L88.0089 10.888C87.8409 10.9533 87.6636 11 87.4769 11.028C87.2996 11.0653 87.1036 11.084 86.8889 11.084C86.7116 11.084 86.5249 11.0607 86.3289 11.014C86.1329 10.9673 85.9509 10.8787 85.7829 10.748C85.6149 10.6173 85.4749 10.44 85.3629 10.216C85.2603 9.992 85.2089 9.698 85.2089 9.334V5.246H83.8509V4.448H85.2089V2.6H86.1609V4.448H88.0089V5.246ZM94.4963 7.22C94.4683 6.604 94.2676 6.09533 93.8943 5.694C93.5303 5.28333 93.0076 5.078 92.3263 5.078C92.0089 5.078 91.7149 5.13867 91.4443 5.26C91.1736 5.372 90.9356 5.53067 90.7303 5.736C90.5249 5.932 90.3616 6.16067 90.2403 6.422C90.1189 6.674 90.0489 6.94 90.0303 7.22H94.4963ZM95.4623 7.528C95.4623 7.59333 95.4623 7.66333 95.4623 7.738C95.4623 7.81267 95.4576 7.892 95.4483 7.976H90.0163C90.0256 8.30267 90.0909 8.61067 90.2123 8.9C90.3336 9.18933 90.5016 9.44133 90.7163 9.656C90.9309 9.87067 91.1829 10.0433 91.4723 10.174C91.7616 10.2953 92.0743 10.356 92.4103 10.356C92.9049 10.356 93.3296 10.244 93.6843 10.02C94.0483 9.78667 94.3236 9.52067 94.5103 9.222L95.2243 9.782C94.8323 10.2767 94.3983 10.6313 93.9223 10.846C93.4556 11.0607 92.9516 11.168 92.4103 11.168C91.9249 11.168 91.4723 11.084 91.0523 10.916C90.6416 10.7387 90.2869 10.496 89.9883 10.188C89.6896 9.88 89.4516 9.516 89.2743 9.096C89.1063 8.676 89.0223 8.21867 89.0223 7.724C89.0223 7.22933 89.1063 6.772 89.2743 6.352C89.4423 5.932 89.6756 5.568 89.9743 5.26C90.2729 4.952 90.6229 4.714 91.0243 4.546C91.4256 4.36867 91.8596 4.28 92.3263 4.28C92.8396 4.28 93.2923 4.36867 93.6843 4.546C94.0763 4.714 94.4029 4.94733 94.6643 5.246C94.9256 5.53533 95.1216 5.876 95.2523 6.268C95.3923 6.66 95.4623 7.08 95.4623 7.528ZM97.51 5.89C97.51 5.71267 97.5053 5.484 97.496 5.204C97.4867 4.924 97.4727 4.672 97.454 4.448H98.364C98.3827 4.62533 98.3967 4.82133 98.406 5.036C98.4153 5.25067 98.42 5.428 98.42 5.568H98.448C98.6347 5.18533 98.9147 4.87733 99.288 4.644C99.6613 4.40133 100.081 4.28 100.548 4.28C100.669 4.28 100.777 4.28467 100.87 4.294C100.973 4.30333 101.075 4.322 101.178 4.35L101.052 5.246C100.996 5.22733 100.903 5.20867 100.772 5.19C100.641 5.17133 100.511 5.162 100.38 5.162C100.128 5.162 99.8853 5.20867 99.652 5.302C99.4187 5.39533 99.2133 5.54467 99.036 5.75C98.868 5.946 98.728 6.20267 98.616 6.52C98.5133 6.828 98.462 7.20133 98.462 7.64V11H97.51V5.89ZM103.409 4.448C103.428 4.62533 103.442 4.82133 103.451 5.036C103.46 5.25067 103.465 5.428 103.465 5.568H103.493C103.68 5.18533 103.983 4.87733 104.403 4.644C104.823 4.40133 105.266 4.28 105.733 4.28C106.564 4.28 107.184 4.52733 107.595 5.022C108.015 5.51667 108.225 6.17 108.225 6.982V11H107.273V7.374C107.273 7.02867 107.245 6.716 107.189 6.436C107.133 6.156 107.035 5.918 106.895 5.722C106.764 5.51667 106.582 5.358 106.349 5.246C106.125 5.134 105.84 5.078 105.495 5.078C105.243 5.078 104.996 5.12933 104.753 5.232C104.52 5.33467 104.31 5.49333 104.123 5.708C103.936 5.91333 103.787 6.17933 103.675 6.506C103.563 6.82333 103.507 7.20133 103.507 7.64V11H102.555V5.89C102.555 5.71267 102.55 5.484 102.541 5.204C102.532 4.924 102.518 4.672 102.499 4.448H103.409ZM114.82 6.772C114.82 6.20267 114.67 5.778 114.372 5.498C114.073 5.218 113.639 5.078 113.07 5.078C112.678 5.078 112.314 5.148 111.978 5.288C111.642 5.428 111.357 5.61467 111.124 5.848L110.592 5.218C110.862 4.94733 111.217 4.72333 111.656 4.546C112.104 4.36867 112.608 4.28 113.168 4.28C113.522 4.28 113.854 4.33133 114.162 4.434C114.47 4.52733 114.74 4.672 114.974 4.868C115.207 5.064 115.389 5.31133 115.52 5.61C115.65 5.90867 115.716 6.25867 115.716 6.66V9.53C115.716 9.782 115.725 10.0433 115.744 10.314C115.762 10.5847 115.79 10.8133 115.828 11H114.974C114.946 10.8413 114.922 10.6687 114.904 10.482C114.885 10.2953 114.876 10.1133 114.876 9.936H114.848C114.549 10.3747 114.208 10.692 113.826 10.888C113.452 11.0747 113 11.168 112.468 11.168C112.216 11.168 111.954 11.1307 111.684 11.056C111.422 10.9907 111.18 10.8787 110.956 10.72C110.741 10.5613 110.559 10.356 110.41 10.104C110.27 9.852 110.2 9.544 110.2 9.18C110.2 8.676 110.326 8.27933 110.578 7.99C110.839 7.69133 111.184 7.472 111.614 7.332C112.043 7.18267 112.533 7.08933 113.084 7.052C113.644 7.00533 114.222 6.982 114.82 6.982V6.772ZM114.54 7.724C114.148 7.724 113.751 7.74267 113.35 7.78C112.958 7.808 112.598 7.87333 112.272 7.976C111.954 8.06933 111.693 8.20933 111.488 8.396C111.282 8.58267 111.18 8.83 111.18 9.138C111.18 9.37133 111.222 9.56733 111.306 9.726C111.399 9.88467 111.52 10.0153 111.67 10.118C111.819 10.2113 111.982 10.2813 112.16 10.328C112.346 10.3653 112.533 10.384 112.72 10.384C113.056 10.384 113.354 10.328 113.616 10.216C113.877 10.0947 114.096 9.936 114.274 9.74C114.451 9.53467 114.586 9.30133 114.68 9.04C114.773 8.77867 114.82 8.50333 114.82 8.214V7.724H114.54ZM120.985 5.246H119.137V9.068C119.137 9.31067 119.161 9.51133 119.207 9.67C119.254 9.82867 119.319 9.95467 119.403 10.048C119.497 10.132 119.604 10.1927 119.725 10.23C119.847 10.258 119.977 10.272 120.117 10.272C120.248 10.272 120.383 10.2533 120.523 10.216C120.673 10.1787 120.813 10.1273 120.943 10.062L120.985 10.888C120.817 10.9533 120.64 11 120.453 11.028C120.276 11.0653 120.08 11.084 119.865 11.084C119.688 11.084 119.501 11.0607 119.305 11.014C119.109 10.9673 118.927 10.8787 118.759 10.748C118.591 10.6173 118.451 10.44 118.339 10.216C118.237 9.992 118.185 9.698 118.185 9.334V5.246H116.827V4.448H118.185V2.6H119.137V4.448H120.985V5.246ZM123.441 11H122.489V4.448H123.441V11ZM123.637 1.928C123.637 2.124 123.567 2.28733 123.427 2.418C123.287 2.53933 123.133 2.6 122.965 2.6C122.797 2.6 122.643 2.53933 122.503 2.418C122.363 2.28733 122.293 2.124 122.293 1.928C122.293 1.732 122.363 1.57333 122.503 1.452C122.643 1.32133 122.797 1.256 122.965 1.256C123.133 1.256 123.287 1.32133 123.427 1.452C123.567 1.57333 123.637 1.732 123.637 1.928ZM132.485 7.724C132.485 8.21867 132.396 8.676 132.219 9.096C132.051 9.516 131.813 9.88 131.505 10.188C131.197 10.496 130.828 10.7387 130.399 10.916C129.97 11.084 129.498 11.168 128.985 11.168C128.481 11.168 128.014 11.084 127.585 10.916C127.156 10.7387 126.787 10.496 126.479 10.188C126.171 9.88 125.928 9.516 125.751 9.096C125.583 8.676 125.499 8.21867 125.499 7.724C125.499 7.22933 125.583 6.772 125.751 6.352C125.928 5.932 126.171 5.568 126.479 5.26C126.787 4.952 127.156 4.714 127.585 4.546C128.014 4.36867 128.481 4.28 128.985 4.28C129.498 4.28 129.97 4.36867 130.399 4.546C130.828 4.714 131.197 4.952 131.505 5.26C131.813 5.568 132.051 5.932 132.219 6.352C132.396 6.772 132.485 7.22933 132.485 7.724ZM131.477 7.724C131.477 7.36 131.416 7.01933 131.295 6.702C131.183 6.37533 131.02 6.09533 130.805 5.862C130.59 5.61933 130.329 5.428 130.021 5.288C129.713 5.148 129.368 5.078 128.985 5.078C128.602 5.078 128.257 5.148 127.949 5.288C127.65 5.428 127.394 5.61933 127.179 5.862C126.964 6.09533 126.796 6.37533 126.675 6.702C126.563 7.01933 126.507 7.36 126.507 7.724C126.507 8.088 126.563 8.43333 126.675 8.76C126.796 9.07733 126.964 9.35733 127.179 9.6C127.394 9.83333 127.65 10.02 127.949 10.16C128.257 10.2907 128.602 10.356 128.985 10.356C129.368 10.356 129.713 10.2907 130.021 10.16C130.329 10.02 130.59 9.83333 130.805 9.6C131.02 9.35733 131.183 9.07733 131.295 8.76C131.416 8.43333 131.477 8.088 131.477 7.724ZM135.387 4.448C135.406 4.62533 135.42 4.82133 135.429 5.036C135.439 5.25067 135.443 5.428 135.443 5.568H135.471C135.658 5.18533 135.961 4.87733 136.381 4.644C136.801 4.40133 137.245 4.28 137.711 4.28C138.542 4.28 139.163 4.52733 139.573 5.022C139.993 5.51667 140.203 6.17 140.203 6.982V11H139.251V7.374C139.251 7.02867 139.223 6.716 139.167 6.436C139.111 6.156 139.013 5.918 138.873 5.722C138.743 5.51667 138.561 5.358 138.327 5.246C138.103 5.134 137.819 5.078 137.473 5.078C137.221 5.078 136.974 5.12933 136.731 5.232C136.498 5.33467 136.288 5.49333 136.101 5.708C135.915 5.91333 135.765 6.17933 135.653 6.506C135.541 6.82333 135.485 7.20133 135.485 7.64V11H134.533V5.89C134.533 5.71267 134.529 5.484 134.519 5.204C134.51 4.924 134.496 4.672 134.477 4.448H135.387ZM146.798 6.772C146.798 6.20267 146.649 5.778 146.35 5.498C146.052 5.218 145.618 5.078 145.048 5.078C144.656 5.078 144.292 5.148 143.956 5.288C143.62 5.428 143.336 5.61467 143.102 5.848L142.57 5.218C142.841 4.94733 143.196 4.72333 143.634 4.546C144.082 4.36867 144.586 4.28 145.146 4.28C145.501 4.28 145.832 4.33133 146.14 4.434C146.448 4.52733 146.719 4.672 146.952 4.868C147.186 5.064 147.368 5.31133 147.498 5.61C147.629 5.90867 147.694 6.25867 147.694 6.66V9.53C147.694 9.782 147.704 10.0433 147.722 10.314C147.741 10.5847 147.769 10.8133 147.806 11H146.952C146.924 10.8413 146.901 10.6687 146.882 10.482C146.864 10.2953 146.854 10.1133 146.854 9.936H146.826C146.528 10.3747 146.187 10.692 145.804 10.888C145.431 11.0747 144.978 11.168 144.446 11.168C144.194 11.168 143.933 11.1307 143.662 11.056C143.401 10.9907 143.158 10.8787 142.934 10.72C142.72 10.5613 142.538 10.356 142.388 10.104C142.248 9.852 142.178 9.544 142.178 9.18C142.178 8.676 142.304 8.27933 142.556 7.99C142.818 7.69133 143.163 7.472 143.592 7.332C144.022 7.18267 144.512 7.08933 145.062 7.052C145.622 7.00533 146.201 6.982 146.798 6.982V6.772ZM146.518 7.724C146.126 7.724 145.73 7.74267 145.328 7.78C144.936 7.808 144.577 7.87333 144.25 7.976C143.933 8.06933 143.672 8.20933 143.466 8.396C143.261 8.58267 143.158 8.83 143.158 9.138C143.158 9.37133 143.2 9.56733 143.284 9.726C143.378 9.88467 143.499 10.0153 143.648 10.118C143.798 10.2113 143.961 10.2813 144.138 10.328C144.325 10.3653 144.512 10.384 144.698 10.384C145.034 10.384 145.333 10.328 145.594 10.216C145.856 10.0947 146.075 9.936 146.252 9.74C146.43 9.53467 146.565 9.30133 146.658 9.04C146.752 8.77867 146.798 8.50333 146.798 8.214V7.724H146.518ZM151.127 11H150.175V0.415999H151.127V11ZM158.238 10.104H162.858V11H157.23V1.088H158.238V10.104ZM167.265 5.246H165.417V9.068C165.417 9.31067 165.44 9.51133 165.487 9.67C165.533 9.82867 165.599 9.95467 165.683 10.048C165.776 10.132 165.883 10.1927 166.005 10.23C166.126 10.258 166.257 10.272 166.397 10.272C166.527 10.272 166.663 10.2533 166.803 10.216C166.952 10.1787 167.092 10.1273 167.223 10.062L167.265 10.888C167.097 10.9533 166.919 11 166.733 11.028C166.555 11.0653 166.359 11.084 166.145 11.084C165.967 11.084 165.781 11.0607 165.585 11.014C165.389 10.9673 165.207 10.8787 165.039 10.748C164.871 10.6173 164.731 10.44 164.619 10.216C164.516 9.992 164.465 9.698 164.465 9.334V5.246H163.107V4.448H164.465V2.6H165.417V4.448H167.265V5.246ZM174.144 9.894C173.864 10.314 173.5 10.6313 173.052 10.846C172.604 11.0607 172.142 11.168 171.666 11.168C171.153 11.168 170.686 11.0793 170.266 10.902C169.855 10.7247 169.501 10.482 169.202 10.174C168.913 9.866 168.684 9.502 168.516 9.082C168.357 8.662 168.278 8.20933 168.278 7.724C168.278 7.23867 168.357 6.786 168.516 6.366C168.684 5.946 168.913 5.582 169.202 5.274C169.501 4.966 169.855 4.72333 170.266 4.546C170.686 4.36867 171.153 4.28 171.666 4.28C172.142 4.28 172.604 4.392 173.052 4.616C173.5 4.83067 173.864 5.15267 174.144 5.582H174.172V0.415999H175.124V11H174.172V9.894H174.144ZM169.286 7.724C169.286 8.088 169.342 8.43333 169.454 8.76C169.566 9.07733 169.725 9.35733 169.93 9.6C170.145 9.83333 170.406 10.02 170.714 10.16C171.022 10.2907 171.372 10.356 171.764 10.356C172.128 10.356 172.464 10.2907 172.772 10.16C173.08 10.02 173.346 9.83333 173.57 9.6C173.794 9.36667 173.967 9.09133 174.088 8.774C174.219 8.44733 174.284 8.09733 174.284 7.724C174.284 7.35067 174.219 7.00533 174.088 6.688C173.967 6.36133 173.794 6.08133 173.57 5.848C173.346 5.60533 173.08 5.41867 172.772 5.288C172.464 5.148 172.128 5.078 171.764 5.078C171.372 5.078 171.022 5.148 170.714 5.288C170.406 5.428 170.145 5.61933 169.93 5.862C169.725 6.09533 169.566 6.37533 169.454 6.702C169.342 7.01933 169.286 7.36 169.286 7.724ZM178.984 10.328C178.984 10.524 178.914 10.7013 178.774 10.86C178.634 11.0093 178.452 11.084 178.228 11.084C178.004 11.084 177.822 11.0093 177.682 10.86C177.542 10.7013 177.472 10.524 177.472 10.328C177.472 10.132 177.542 9.95933 177.682 9.81C177.822 9.65133 178.004 9.572 178.228 9.572C178.452 9.572 178.634 9.65133 178.774 9.81C178.914 9.95933 178.984 10.132 178.984 10.328ZM190.177 11H183.835V9.95L187.895 5.848C188.044 5.69867 188.189 5.54 188.329 5.372C188.478 5.19467 188.609 5.01267 188.721 4.826C188.833 4.63933 188.922 4.44333 188.987 4.238C189.052 4.02333 189.085 3.804 189.085 3.58C189.085 3.29067 189.034 3.02933 188.931 2.796C188.828 2.56267 188.684 2.36667 188.497 2.208C188.32 2.04 188.11 1.914 187.867 1.83C187.634 1.73667 187.386 1.69 187.125 1.69C186.593 1.69 186.145 1.858 185.781 2.194C185.417 2.52067 185.184 2.94067 185.081 3.454L184.087 3.258C184.152 2.91267 184.274 2.59067 184.451 2.292C184.638 1.99333 184.862 1.73667 185.123 1.522C185.394 1.30733 185.697 1.13933 186.033 1.018C186.369 0.896666 186.733 0.836 187.125 0.836C187.526 0.836 187.904 0.896666 188.259 1.018C188.623 1.13 188.94 1.30267 189.211 1.536C189.482 1.76 189.696 2.04467 189.855 2.39C190.023 2.726 190.107 3.118 190.107 3.566C190.107 3.88333 190.06 4.17733 189.967 4.448C189.883 4.71867 189.766 4.97533 189.617 5.218C189.477 5.46067 189.309 5.694 189.113 5.918C188.917 6.13267 188.712 6.34733 188.497 6.562L184.927 10.104H190.177V11ZM195.302 0.836C195.918 0.836 196.432 0.99 196.842 1.298C197.262 1.59667 197.598 1.99333 197.85 2.488C198.102 2.97333 198.28 3.52867 198.382 4.154C198.494 4.77933 198.55 5.414 198.55 6.058C198.55 6.702 198.494 7.33667 198.382 7.962C198.28 8.578 198.102 9.13333 197.85 9.628C197.598 10.1133 197.262 10.5053 196.842 10.804C196.432 11.1027 195.918 11.252 195.302 11.252C194.677 11.252 194.154 11.1027 193.734 10.804C193.324 10.5053 192.992 10.1133 192.74 9.628C192.488 9.13333 192.311 8.578 192.208 7.962C192.106 7.33667 192.054 6.702 192.054 6.058C192.054 5.414 192.106 4.77933 192.208 4.154C192.311 3.52867 192.488 2.97333 192.74 2.488C192.992 1.99333 193.324 1.59667 193.734 1.298C194.154 0.99 194.677 0.836 195.302 0.836ZM195.302 1.69C194.864 1.69 194.5 1.82533 194.21 2.096C193.921 2.36667 193.692 2.712 193.524 3.132C193.356 3.552 193.24 4.02333 193.174 4.546C193.109 5.05933 193.076 5.56333 193.076 6.058C193.076 6.55267 193.109 7.05667 193.174 7.57C193.24 8.08333 193.356 8.55 193.524 8.97C193.692 9.38067 193.921 9.72133 194.21 9.992C194.5 10.2533 194.864 10.384 195.302 10.384C195.732 10.384 196.091 10.2533 196.38 9.992C196.67 9.72133 196.898 9.38067 197.066 8.97C197.234 8.55 197.351 8.08333 197.416 7.57C197.491 7.05667 197.528 6.55267 197.528 6.058C197.528 5.56333 197.491 5.05933 197.416 4.546C197.351 4.02333 197.234 3.552 197.066 3.132C196.898 2.712 196.67 2.36667 196.38 2.096C196.091 1.82533 195.732 1.69 195.302 1.69ZM206.419 11H200.077V9.95L204.137 5.848C204.287 5.69867 204.431 5.54 204.571 5.372C204.721 5.19467 204.851 5.01267 204.963 4.826C205.075 4.63933 205.164 4.44333 205.229 4.238C205.295 4.02333 205.327 3.804 205.327 3.58C205.327 3.29067 205.276 3.02933 205.173 2.796C205.071 2.56267 204.926 2.36667 204.739 2.208C204.562 2.04 204.352 1.914 204.109 1.83C203.876 1.73667 203.629 1.69 203.367 1.69C202.835 1.69 202.387 1.858 202.023 2.194C201.659 2.52067 201.426 2.94067 201.323 3.454L200.329 3.258C200.395 2.91267 200.516 2.59067 200.693 2.292C200.88 1.99333 201.104 1.73667 201.365 1.522C201.636 1.30733 201.939 1.13933 202.275 1.018C202.611 0.896666 202.975 0.836 203.367 0.836C203.769 0.836 204.147 0.896666 204.501 1.018C204.865 1.13 205.183 1.30267 205.453 1.536C205.724 1.76 205.939 2.04467 206.097 2.39C206.265 2.726 206.349 3.118 206.349 3.566C206.349 3.88333 206.303 4.17733 206.209 4.448C206.125 4.71867 206.009 4.97533 205.859 5.218C205.719 5.46067 205.551 5.694 205.355 5.918C205.159 6.13267 204.954 6.34733 204.739 6.562L201.169 10.104H206.419V11ZM210.48 5.372H210.914C211.232 5.372 211.53 5.33933 211.81 5.274C212.09 5.20867 212.333 5.106 212.538 4.966C212.753 4.81667 212.921 4.62533 213.042 4.392C213.164 4.15867 213.224 3.87867 213.224 3.552C213.224 3.272 213.173 3.02 213.07 2.796C212.968 2.56267 212.823 2.36667 212.636 2.208C212.459 2.04 212.249 1.914 212.006 1.83C211.773 1.73667 211.526 1.69 211.264 1.69C210.844 1.69 210.471 1.788 210.144 1.984C209.827 2.18 209.57 2.46933 209.374 2.852L208.52 2.404C208.828 1.872 209.22 1.48 209.696 1.228C210.172 0.966666 210.714 0.836 211.32 0.836C211.712 0.836 212.081 0.896666 212.426 1.018C212.781 1.13 213.089 1.298 213.35 1.522C213.621 1.746 213.831 2.026 213.98 2.362C214.139 2.68867 214.218 3.06667 214.218 3.496C214.218 4.084 214.055 4.57867 213.728 4.98C213.402 5.372 212.991 5.63333 212.496 5.764V5.792C213.066 5.91333 213.542 6.18867 213.924 6.618C214.307 7.038 214.498 7.584 214.498 8.256C214.498 8.732 214.41 9.15667 214.232 9.53C214.064 9.894 213.836 10.2067 213.546 10.468C213.257 10.72 212.916 10.9113 212.524 11.042C212.142 11.182 211.736 11.252 211.306 11.252C210.578 11.252 209.944 11.0793 209.402 10.734C208.861 10.3793 208.45 9.87533 208.17 9.222L209.122 8.872C209.29 9.348 209.57 9.72133 209.962 9.992C210.354 10.2533 210.802 10.384 211.306 10.384C211.586 10.384 211.857 10.3373 212.118 10.244C212.389 10.1413 212.622 10.0013 212.818 9.824C213.024 9.63733 213.187 9.41333 213.308 9.152C213.43 8.89067 213.49 8.592 213.49 8.256C213.49 7.88267 213.416 7.57 213.266 7.318C213.126 7.05667 212.935 6.84667 212.692 6.688C212.45 6.52933 212.174 6.41733 211.866 6.352C211.558 6.27733 211.241 6.24 210.914 6.24H210.48V5.372Z" fill="white"/>
</svg>
