<svg width="30" height="29" viewBox="0 0 30 29" fill="none" xmlns="http://www.w3.org/2000/svg">
<path d="M21 2.40002H9C5.68629 2.40002 3 5.08632 3 8.40003V20.4C3 23.7137 5.68629 26.4 9 26.4H21C24.3137 26.4 27 23.7137 27 20.4V8.40003C27 5.08632 24.3137 2.40002 21 2.40002Z" stroke="#919191" stroke-width="2.4" stroke-linecap="round" stroke-linejoin="round"/>
<path d="M19.8005 13.644C19.9486 14.6427 19.778 15.6627 19.313 16.5588C18.848 17.455 18.1123 18.1817 17.2105 18.6356C16.3087 19.0895 15.2867 19.2475 14.2899 19.0871C13.2931 18.9267 12.3722 18.4561 11.6583 17.7422C10.9444 17.0283 10.4738 16.1075 10.3134 15.1107C10.153 14.1139 10.311 13.0919 10.7649 12.1901C11.2188 11.2882 11.9456 10.5525 12.8417 10.0875C13.7379 9.62251 14.7578 9.45193 15.7565 9.60002C16.7752 9.75108 17.7184 10.2258 18.4466 10.954C19.1748 11.6822 19.6495 12.6253 19.8005 13.644Z" stroke="#919191" stroke-width="2.4" stroke-linecap="round" stroke-linejoin="round"/>
<path d="M21.6001 7.79993H21.6124" stroke="#919191" stroke-width="2.4" stroke-linecap="round" stroke-linejoin="round"/>
</svg>
