<svg width="30" height="29" viewBox="0 0 30 29" fill="none" xmlns="http://www.w3.org/2000/svg">
<path d="M19.9998 9.59998C21.9094 9.59998 23.7407 10.3585 25.091 11.7088C26.4412 13.0591 27.1998 14.8904 27.1998 16.8V25.2H22.3998V16.8C22.3998 16.1635 22.147 15.553 21.6969 15.1029C21.2468 14.6528 20.6363 14.4 19.9998 14.4C19.3633 14.4 18.7528 14.6528 18.3028 15.1029C17.8527 15.553 17.5998 16.1635 17.5998 16.8V25.2H12.7998V16.8C12.7998 14.8904 13.5584 13.0591 14.9086 11.7088C16.2589 10.3585 18.0902 9.59998 19.9998 9.59998Z" stroke="#919191" stroke-width="2.4" stroke-linecap="round" stroke-linejoin="round"/>
<path d="M8.0002 10.8H3.2002V25.2001H8.0002V10.8Z" stroke="#919191" stroke-width="2.4" stroke-linecap="round" stroke-linejoin="round"/>
<path d="M5.6002 7.20003C6.92568 7.20003 8.0002 6.12551 8.0002 4.80003C8.0002 3.47454 6.92568 2.40002 5.6002 2.40002C4.27471 2.40002 3.2002 3.47454 3.2002 4.80003C3.2002 6.12551 4.27471 7.20003 5.6002 7.20003Z" stroke="#919191" stroke-width="2.4" stroke-linecap="round" stroke-linejoin="round"/>
</svg>
