<svg width="30" height="29" viewBox="0 0 30 29" fill="none" xmlns="http://www.w3.org/2000/svg">
<g clip-path="url(#clip0_342_298)">
<path d="M28.0001 3.60008C26.851 4.41065 25.5786 5.03061 24.2321 5.43608C23.5094 4.60509 22.5489 4.01611 21.4806 3.74879C20.4122 3.48147 19.2875 3.54871 18.2586 3.94142C17.2297 4.33413 16.3462 5.03336 15.7277 5.94454C15.1091 6.85572 14.7853 7.93489 14.8001 9.03608V10.2361C12.6913 10.2908 10.6016 9.82306 8.71731 8.87462C6.83299 7.92618 5.21248 6.52644 4.0001 4.80008C4.0001 4.80008 -0.799904 15.6001 10.0001 20.4001C7.52873 22.0777 4.58469 22.9188 1.6001 22.8001C12.4001 28.8001 25.6001 22.8001 25.6001 9.00008C25.599 8.66583 25.5669 8.3324 25.5041 8.00408C26.7288 6.79627 27.5931 5.27134 28.0001 3.60008Z" stroke="#919191" stroke-width="2.4" stroke-linecap="round" stroke-linejoin="round"/>
</g>
<defs>
<clipPath id="clip0_342_298">
<rect width="28.8" height="28.8" fill="white" transform="translate(0.400391)"/>
</clipPath>
</defs>
</svg>
