<svg width="1135" height="255" viewBox="0 0 1135 255" fill="none" xmlns="http://www.w3.org/2000/svg">
<g clip-path="url(#clip0_249_217)">
<g opacity="0.2">
<path d="M1323.37 220.339C1259.62 285.868 1095.88 384.047 950.941 252.526C769.77 88.1251 467.351 192.388 356.714 727.873" stroke="url(#paint0_linear_249_217)" stroke-width="4.55337"/>
<path d="M1316.92 212.462C1253.16 277.991 1089.43 376.17 944.489 244.649C763.318 80.2485 460.899 184.511 350.262 719.996" stroke="url(#paint1_linear_249_217)" stroke-width="4.55337"/>
<path d="M1310.46 204.586C1246.71 270.115 1082.97 368.294 938.037 236.773C756.866 72.3721 454.447 176.635 343.81 712.12" stroke="url(#paint2_linear_249_217)" stroke-width="4.55337"/>
<path d="M1304.01 196.709C1240.26 262.238 1076.52 360.417 931.585 228.896C750.415 64.4956 447.995 168.758 337.358 704.243" stroke="url(#paint3_linear_249_217)" stroke-width="4.55337"/>
<path d="M1297.56 188.833C1233.81 254.362 1070.07 352.541 925.133 221.02C743.962 56.6191 441.543 160.882 330.906 696.367" stroke="url(#paint4_linear_249_217)" stroke-width="4.55337"/>
<path d="M1291.11 180.956C1227.36 246.486 1063.62 344.664 918.681 213.144C737.511 48.7427 435.091 153.005 324.454 688.49" stroke="url(#paint5_linear_249_217)" stroke-width="4.55337"/>
<path d="M1284.66 173.08C1220.9 238.609 1057.17 336.788 912.229 205.267C731.059 40.8662 428.639 145.129 318.002 680.614" stroke="url(#paint6_linear_249_217)" stroke-width="4.55337"/>
<path d="M1278.2 165.203C1214.45 230.733 1050.71 328.911 905.778 197.391C724.607 32.9898 422.188 137.253 311.551 672.737" stroke="url(#paint7_linear_249_217)" stroke-width="4.55337"/>
<path d="M1271.75 157.327C1208 222.856 1044.26 321.035 899.326 189.514C718.155 25.1133 415.735 129.376 305.098 664.861" stroke="url(#paint8_linear_249_217)" stroke-width="4.55337"/>
<path d="M1265.3 149.45C1201.55 214.98 1037.81 313.158 892.874 181.638C711.703 17.2368 409.284 121.5 298.647 656.984" stroke="url(#paint9_linear_249_217)" stroke-width="4.55337"/>
<path d="M1258.85 141.574C1195.1 207.103 1031.36 305.282 886.422 173.761C705.251 9.36036 402.832 113.623 292.195 649.108" stroke="url(#paint10_linear_249_217)" stroke-width="4.55337"/>
<path d="M1252.4 133.697C1188.64 199.227 1024.91 297.405 879.97 165.885C698.799 1.48377 396.38 105.747 285.743 641.231" stroke="url(#paint11_linear_249_217)" stroke-width="4.55337"/>
<path d="M1245.94 125.821C1182.19 191.35 1018.45 289.529 873.518 158.008C692.347 -6.39269 389.928 97.8701 279.291 633.355" stroke="url(#paint12_linear_249_217)" stroke-width="4.55337"/>
<path d="M1239.49 117.944C1175.74 183.474 1012 281.652 867.066 150.132C685.895 -14.2692 383.476 89.9936 272.839 625.478" stroke="url(#paint13_linear_249_217)" stroke-width="4.55337"/>
<path d="M1233.04 110.068C1169.29 175.597 1005.55 273.776 860.614 142.255C679.443 -22.1456 377.024 82.1172 266.387 617.602" stroke="url(#paint14_linear_249_217)" stroke-width="4.55337"/>
<path d="M1226.59 102.191C1162.84 167.721 999.099 265.899 854.162 134.379C672.991 -30.0221 370.572 74.2407 259.935 609.726" stroke="url(#paint15_linear_249_217)" stroke-width="4.55337"/>
<path d="M1220.14 94.3149C1156.39 159.844 992.647 258.023 847.71 126.502C666.54 -37.8986 364.12 66.3643 253.483 601.849" stroke="url(#paint16_linear_249_217)" stroke-width="4.55337"/>
<path d="M1213.69 86.4385C1149.93 151.968 986.195 250.147 841.258 118.626C660.087 -45.775 357.668 58.4878 247.031 593.973" stroke="url(#paint17_linear_249_217)" stroke-width="4.55337"/>
<path d="M1207.23 78.562C1143.48 144.091 979.743 242.27 834.806 110.749C653.636 -53.6515 351.216 50.6113 240.579 586.096" stroke="url(#paint18_linear_249_217)" stroke-width="4.55337"/>
<path d="M1200.78 70.6855C1137.03 136.215 973.291 234.394 828.354 102.873C647.184 -61.5279 344.764 42.7349 234.127 578.22" stroke="url(#paint19_linear_249_217)" stroke-width="4.55337"/>
<path d="M1194.33 62.8089C1130.58 128.338 966.839 226.517 821.903 94.9963C640.732 -69.4045 338.313 34.8583 227.676 570.343" stroke="url(#paint20_linear_249_217)" stroke-width="4.55337"/>
<path d="M1187.88 54.9325C1124.13 120.462 960.387 218.641 815.451 87.1198C634.28 -77.281 331.86 26.9818 221.223 562.467" stroke="url(#paint21_linear_249_217)" stroke-width="4.55337"/>
<path d="M1181.43 47.056C1117.67 112.585 953.935 210.764 808.999 79.2434C627.828 -85.1575 325.409 19.1053 214.772 554.59" stroke="url(#paint22_linear_249_217)" stroke-width="4.55337"/>
<path d="M1174.97 39.1795C1111.22 104.709 947.483 202.888 802.547 71.3669C621.376 -93.0339 318.957 11.2289 208.32 546.714" stroke="url(#paint23_linear_249_217)" stroke-width="4.55337"/>
<path d="M1168.52 31.3031C1104.77 96.8325 941.032 195.011 796.095 63.4905C614.924 -100.91 312.505 3.35241 201.868 538.837" stroke="url(#paint24_linear_249_217)" stroke-width="4.55337"/>
<path d="M1162.07 23.4266C1098.32 88.956 934.579 187.135 789.643 55.614C608.472 -108.787 306.053 -4.52405 195.416 530.961" stroke="url(#paint25_linear_249_217)" stroke-width="4.55337"/>
<path d="M1155.62 15.5502C1091.87 81.0796 928.128 179.258 783.191 47.7375C602.021 -116.663 299.601 -12.4005 188.964 523.084" stroke="url(#paint26_linear_249_217)" stroke-width="4.55337"/>
<path d="M1149.17 7.67369C1085.41 73.2031 921.676 171.382 776.739 39.8611C595.568 -124.54 293.149 -20.277 182.512 515.208" stroke="url(#paint27_linear_249_217)" stroke-width="4.55337"/>
<path d="M1142.71 -0.202837C1078.96 65.3266 915.224 163.505 770.287 31.9845C589.117 -132.416 286.697 -28.1535 176.06 507.331" stroke="url(#paint28_linear_249_217)" stroke-width="4.55337"/>
<path d="M1136.26 -8.0793C1072.51 57.4501 908.772 155.629 763.835 24.1081C582.665 -140.293 280.245 -36.03 169.608 499.455" stroke="url(#paint29_linear_249_217)" stroke-width="4.55337"/>
<path d="M1129.81 -15.9558C1066.06 49.5736 902.32 147.752 757.384 16.2316C576.213 -148.169 273.794 -43.9064 163.157 491.578" stroke="url(#paint30_linear_249_217)" stroke-width="4.55337"/>
<path d="M1123.36 -23.8322C1059.61 41.6972 895.868 139.876 750.931 8.35514C569.761 -156.046 267.341 -51.7829 156.704 483.702" stroke="url(#paint31_linear_249_217)" stroke-width="4.55337"/>
<path d="M1116.91 -31.7087C1053.15 33.8207 889.416 131.999 744.48 0.478675C563.309 -163.922 260.89 -59.6594 150.253 475.825" stroke="url(#paint32_linear_249_217)" stroke-width="4.55337"/>
<path d="M1110.45 -39.5852C1046.7 25.9442 882.964 124.123 738.028 -7.39785C556.857 -171.799 254.438 -67.5359 143.801 467.949" stroke="url(#paint33_linear_249_217)" stroke-width="4.55337"/>
<path d="M1104 -47.4617C1040.25 18.0677 876.513 116.246 731.576 -15.2743C550.405 -179.675 247.986 -75.4124 137.349 460.072" stroke="url(#paint34_linear_249_217)" stroke-width="4.55337"/>
<path d="M1097.55 -55.3382C1033.8 10.1913 870.06 108.37 725.124 -23.1508C543.953 -187.552 241.534 -83.2888 130.897 452.196" stroke="url(#paint35_linear_249_217)" stroke-width="4.55337"/>
<path d="M1091.1 -63.2146C1027.35 2.31479 863.608 100.493 718.672 -31.0272C537.501 -195.428 235.082 -91.1653 124.445 444.32" stroke="url(#paint36_linear_249_217)" stroke-width="4.55337"/>
<path d="M1084.65 -71.0911C1020.89 -5.56168 857.157 92.617 712.22 -38.9037C531.049 -203.305 228.63 -99.0418 117.993 436.443" stroke="url(#paint37_linear_249_217)" stroke-width="4.55337"/>
<path d="M1078.19 -78.9676C1014.44 -13.4382 850.704 84.7404 705.768 -46.7802C524.597 -211.181 222.178 -106.918 111.541 428.567" stroke="url(#paint38_linear_249_217)" stroke-width="4.55337"/>
<path d="M1071.74 -86.8441C1007.99 -21.3147 844.253 76.864 699.316 -54.6567C518.146 -219.058 215.726 -114.795 105.089 420.69" stroke="url(#paint39_linear_249_217)" stroke-width="4.55337"/>
<path d="M1065.29 -94.7205C1001.54 -29.1911 837.801 68.9875 692.864 -62.5332C511.693 -226.934 209.274 -122.671 98.637 412.814" stroke="url(#paint40_linear_249_217)" stroke-width="4.55337"/>
</g>
</g>
<defs>
<linearGradient id="paint0_linear_249_217" x1="1323.87" y1="222.559" x2="356.714" y2="727.873" gradientUnits="userSpaceOnUse">
<stop/>
<stop offset="1" stop-color="#EAEAEA"/>
</linearGradient>
<linearGradient id="paint1_linear_249_217" x1="1317.42" y1="214.683" x2="350.262" y2="719.996" gradientUnits="userSpaceOnUse">
<stop/>
<stop offset="1" stop-color="#EAEAEA"/>
</linearGradient>
<linearGradient id="paint2_linear_249_217" x1="1310.97" y1="206.806" x2="343.81" y2="712.12" gradientUnits="userSpaceOnUse">
<stop/>
<stop offset="1" stop-color="#EAEAEA"/>
</linearGradient>
<linearGradient id="paint3_linear_249_217" x1="1304.51" y1="198.93" x2="337.358" y2="704.243" gradientUnits="userSpaceOnUse">
<stop/>
<stop offset="1" stop-color="#EAEAEA"/>
</linearGradient>
<linearGradient id="paint4_linear_249_217" x1="1298.06" y1="191.053" x2="330.906" y2="696.367" gradientUnits="userSpaceOnUse">
<stop/>
<stop offset="1" stop-color="#EAEAEA"/>
</linearGradient>
<linearGradient id="paint5_linear_249_217" x1="1291.61" y1="183.177" x2="324.454" y2="688.49" gradientUnits="userSpaceOnUse">
<stop/>
<stop offset="1" stop-color="#EAEAEA"/>
</linearGradient>
<linearGradient id="paint6_linear_249_217" x1="1285.16" y1="175.3" x2="318.002" y2="680.614" gradientUnits="userSpaceOnUse">
<stop/>
<stop offset="1" stop-color="#EAEAEA"/>
</linearGradient>
<linearGradient id="paint7_linear_249_217" x1="1278.71" y1="167.424" x2="311.551" y2="672.737" gradientUnits="userSpaceOnUse">
<stop/>
<stop offset="1" stop-color="#EAEAEA"/>
</linearGradient>
<linearGradient id="paint8_linear_249_217" x1="1272.26" y1="159.547" x2="305.098" y2="664.861" gradientUnits="userSpaceOnUse">
<stop/>
<stop offset="1" stop-color="#EAEAEA"/>
</linearGradient>
<linearGradient id="paint9_linear_249_217" x1="1265.8" y1="151.671" x2="298.647" y2="656.984" gradientUnits="userSpaceOnUse">
<stop/>
<stop offset="1" stop-color="#EAEAEA"/>
</linearGradient>
<linearGradient id="paint10_linear_249_217" x1="1259.35" y1="143.794" x2="292.195" y2="649.108" gradientUnits="userSpaceOnUse">
<stop/>
<stop offset="1" stop-color="#EAEAEA"/>
</linearGradient>
<linearGradient id="paint11_linear_249_217" x1="1252.9" y1="135.918" x2="285.743" y2="641.231" gradientUnits="userSpaceOnUse">
<stop/>
<stop offset="1" stop-color="#EAEAEA"/>
</linearGradient>
<linearGradient id="paint12_linear_249_217" x1="1246.45" y1="128.041" x2="279.291" y2="633.355" gradientUnits="userSpaceOnUse">
<stop/>
<stop offset="1" stop-color="#EAEAEA"/>
</linearGradient>
<linearGradient id="paint13_linear_249_217" x1="1240" y1="120.165" x2="272.839" y2="625.478" gradientUnits="userSpaceOnUse">
<stop/>
<stop offset="1" stop-color="#EAEAEA"/>
</linearGradient>
<linearGradient id="paint14_linear_249_217" x1="1233.54" y1="112.288" x2="266.387" y2="617.602" gradientUnits="userSpaceOnUse">
<stop/>
<stop offset="1" stop-color="#EAEAEA"/>
</linearGradient>
<linearGradient id="paint15_linear_249_217" x1="1227.09" y1="104.412" x2="259.935" y2="609.726" gradientUnits="userSpaceOnUse">
<stop/>
<stop offset="1" stop-color="#EAEAEA"/>
</linearGradient>
<linearGradient id="paint16_linear_249_217" x1="1220.64" y1="96.5354" x2="253.483" y2="601.849" gradientUnits="userSpaceOnUse">
<stop/>
<stop offset="1" stop-color="#EAEAEA"/>
</linearGradient>
<linearGradient id="paint17_linear_249_217" x1="1214.19" y1="88.659" x2="247.031" y2="593.973" gradientUnits="userSpaceOnUse">
<stop/>
<stop offset="1" stop-color="#EAEAEA"/>
</linearGradient>
<linearGradient id="paint18_linear_249_217" x1="1207.74" y1="80.7825" x2="240.579" y2="586.096" gradientUnits="userSpaceOnUse">
<stop/>
<stop offset="1" stop-color="#EAEAEA"/>
</linearGradient>
<linearGradient id="paint19_linear_249_217" x1="1201.28" y1="72.906" x2="234.127" y2="578.22" gradientUnits="userSpaceOnUse">
<stop/>
<stop offset="1" stop-color="#EAEAEA"/>
</linearGradient>
<linearGradient id="paint20_linear_249_217" x1="1194.83" y1="65.0295" x2="227.676" y2="570.343" gradientUnits="userSpaceOnUse">
<stop/>
<stop offset="1" stop-color="#EAEAEA"/>
</linearGradient>
<linearGradient id="paint21_linear_249_217" x1="1188.38" y1="57.153" x2="221.223" y2="562.467" gradientUnits="userSpaceOnUse">
<stop/>
<stop offset="1" stop-color="#EAEAEA"/>
</linearGradient>
<linearGradient id="paint22_linear_249_217" x1="1181.93" y1="49.2765" x2="214.772" y2="554.59" gradientUnits="userSpaceOnUse">
<stop/>
<stop offset="1" stop-color="#EAEAEA"/>
</linearGradient>
<linearGradient id="paint23_linear_249_217" x1="1175.48" y1="41.4001" x2="208.32" y2="546.714" gradientUnits="userSpaceOnUse">
<stop/>
<stop offset="1" stop-color="#EAEAEA"/>
</linearGradient>
<linearGradient id="paint24_linear_249_217" x1="1169.02" y1="33.5236" x2="201.868" y2="538.837" gradientUnits="userSpaceOnUse">
<stop/>
<stop offset="1" stop-color="#EAEAEA"/>
</linearGradient>
<linearGradient id="paint25_linear_249_217" x1="1162.57" y1="25.6471" x2="195.416" y2="530.961" gradientUnits="userSpaceOnUse">
<stop/>
<stop offset="1" stop-color="#EAEAEA"/>
</linearGradient>
<linearGradient id="paint26_linear_249_217" x1="1156.12" y1="17.7707" x2="188.964" y2="523.084" gradientUnits="userSpaceOnUse">
<stop/>
<stop offset="1" stop-color="#EAEAEA"/>
</linearGradient>
<linearGradient id="paint27_linear_249_217" x1="1149.67" y1="9.8942" x2="182.512" y2="515.208" gradientUnits="userSpaceOnUse">
<stop/>
<stop offset="1" stop-color="#EAEAEA"/>
</linearGradient>
<linearGradient id="paint28_linear_249_217" x1="1143.22" y1="2.01768" x2="176.06" y2="507.331" gradientUnits="userSpaceOnUse">
<stop/>
<stop offset="1" stop-color="#EAEAEA"/>
</linearGradient>
<linearGradient id="paint29_linear_249_217" x1="1136.76" y1="-5.85879" x2="169.608" y2="499.455" gradientUnits="userSpaceOnUse">
<stop/>
<stop offset="1" stop-color="#EAEAEA"/>
</linearGradient>
<linearGradient id="paint30_linear_249_217" x1="1130.31" y1="-13.7353" x2="163.157" y2="491.578" gradientUnits="userSpaceOnUse">
<stop/>
<stop offset="1" stop-color="#EAEAEA"/>
</linearGradient>
<linearGradient id="paint31_linear_249_217" x1="1123.86" y1="-21.6117" x2="156.704" y2="483.702" gradientUnits="userSpaceOnUse">
<stop/>
<stop offset="1" stop-color="#EAEAEA"/>
</linearGradient>
<linearGradient id="paint32_linear_249_217" x1="1117.41" y1="-29.4882" x2="150.253" y2="475.825" gradientUnits="userSpaceOnUse">
<stop/>
<stop offset="1" stop-color="#EAEAEA"/>
</linearGradient>
<linearGradient id="paint33_linear_249_217" x1="1110.96" y1="-37.3647" x2="143.801" y2="467.949" gradientUnits="userSpaceOnUse">
<stop/>
<stop offset="1" stop-color="#EAEAEA"/>
</linearGradient>
<linearGradient id="paint34_linear_249_217" x1="1104.51" y1="-45.2412" x2="137.349" y2="460.072" gradientUnits="userSpaceOnUse">
<stop/>
<stop offset="1" stop-color="#EAEAEA"/>
</linearGradient>
<linearGradient id="paint35_linear_249_217" x1="1098.05" y1="-53.1176" x2="130.897" y2="452.196" gradientUnits="userSpaceOnUse">
<stop/>
<stop offset="1" stop-color="#EAEAEA"/>
</linearGradient>
<linearGradient id="paint36_linear_249_217" x1="1091.6" y1="-60.9941" x2="124.445" y2="444.32" gradientUnits="userSpaceOnUse">
<stop/>
<stop offset="1" stop-color="#EAEAEA"/>
</linearGradient>
<linearGradient id="paint37_linear_249_217" x1="1085.15" y1="-68.8706" x2="117.993" y2="436.443" gradientUnits="userSpaceOnUse">
<stop/>
<stop offset="1" stop-color="#EAEAEA"/>
</linearGradient>
<linearGradient id="paint38_linear_249_217" x1="1078.7" y1="-76.7471" x2="111.541" y2="428.567" gradientUnits="userSpaceOnUse">
<stop/>
<stop offset="1" stop-color="#EAEAEA"/>
</linearGradient>
<linearGradient id="paint39_linear_249_217" x1="1072.25" y1="-84.6236" x2="105.089" y2="420.69" gradientUnits="userSpaceOnUse">
<stop/>
<stop offset="1" stop-color="#EAEAEA"/>
</linearGradient>
<linearGradient id="paint40_linear_249_217" x1="1065.79" y1="-92.5" x2="98.6371" y2="412.814" gradientUnits="userSpaceOnUse">
<stop/>
<stop offset="1" stop-color="#EAEAEA"/>
</linearGradient>
<clipPath id="clip0_249_217">
<rect width="1135" height="255" rx="6" fill="white"/>
</clipPath>
</defs>
</svg>
