<svg width="162" height="28" viewBox="0 0 162 28" fill="none" xmlns="http://www.w3.org/2000/svg">
<path d="M7.7186 27L0.192005 0.119292H7.6034L11.7507 17.0541L16.5508 0.119292H21.9654L26.7655 17.0541L30.9512 0.119292H38.3242L30.836 27H23.5782L19.2773 11.8316L14.9764 27H7.7186ZM47.4381 27.5376C44.5965 27.5376 42.1772 26.5648 40.1804 24.6191C38.1835 22.6479 37.1851 20.2414 37.1851 17.3997C37.1851 14.5581 38.1835 12.1644 40.1804 10.2188C42.1772 8.24751 44.5965 7.26188 47.4381 7.26188C50.3054 7.26188 52.7247 8.24751 54.6959 10.2188C56.6928 12.1644 57.6912 14.5581 57.6912 17.3997C57.6912 20.2414 56.6928 22.6479 54.6959 24.6191C52.7247 26.5648 50.3054 27.5376 47.4381 27.5376ZM47.4381 21.3935C48.5646 21.3935 49.4862 21.0222 50.203 20.2798C50.9454 19.5374 51.3166 18.5774 51.3166 17.3997C51.3166 16.2221 50.9454 15.2621 50.203 14.5197C49.4862 13.7773 48.5646 13.406 47.4381 13.406C46.3373 13.406 45.4157 13.7773 44.6733 14.5197C43.9565 15.2621 43.598 16.2221 43.598 17.3997C43.598 18.5774 43.9565 19.5374 44.6733 20.2798C45.4157 21.0222 46.3373 21.3935 47.4381 21.3935ZM66.8694 11.3708C67.2278 10.1164 67.9446 9.14353 69.0198 8.45231C70.095 7.76109 71.2983 7.41548 72.6295 7.41548V14.4813C71.1703 14.2509 69.839 14.5197 68.6358 15.2877C67.4582 16.0557 66.8694 17.3101 66.8694 19.051V27H60.4948V7.7995H66.8694V11.3708ZM94.0153 27H86.8727L81.4197 18.8206V27H75.0452V0.119292H81.4197V15.8253L86.3735 7.7995H93.7465L87.2951 17.3997L94.0153 27Z" fill="#6F6F6F"/>
<path d="M101.542 19.7422C102.182 21.3039 103.615 22.0847 105.842 22.0847C107.225 22.0847 108.39 21.6367 109.337 20.7406L113.945 23.9663C112.051 26.3472 109.299 27.5376 105.689 27.5376C102.438 27.5376 99.8263 26.5904 97.8551 24.6959C95.9094 22.7759 94.9366 20.3566 94.9366 17.4381C94.9366 14.5453 95.8966 12.126 97.8167 10.1804C99.7367 8.23471 102.182 7.26188 105.151 7.26188C108.019 7.26188 110.387 8.22191 112.255 10.142C114.124 12.062 115.059 14.4685 115.059 17.3613C115.059 18.2062 114.969 18.9998 114.79 19.7422H101.542ZM101.465 15.3261H108.838C108.326 13.534 107.123 12.638 105.228 12.638C103.257 12.638 102.002 13.534 101.465 15.3261ZM125.264 21.0862H132.445V27H116.739V22.6223L123.536 13.7133H117.123V7.7995H132.061V12.1772L125.264 21.0862ZM143.34 21.0862H150.521V27H134.815V22.6223L141.612 13.7133H135.199V7.7995H150.137V12.1772L143.34 21.0862ZM157.447 27.5376C156.321 27.5376 155.361 27.1536 154.567 26.3856C153.799 25.592 153.415 24.6447 153.415 23.5439C153.415 22.4431 153.812 21.5087 154.605 20.7406C155.399 19.947 156.346 19.5502 157.447 19.5502C158.548 19.5502 159.482 19.947 160.25 20.7406C161.044 21.5087 161.441 22.4431 161.441 23.5439C161.441 24.6447 161.044 25.592 160.25 26.3856C159.482 27.1536 158.548 27.5376 157.447 27.5376Z" fill="#6F6F6F"/>
</svg>
