<svg width="439" height="159" viewBox="0 0 439 159" fill="none" xmlns="http://www.w3.org/2000/svg">
<path d="M38.894 105L20.47 39.2H38.612L48.764 80.654L60.514 39.2H73.768L85.518 80.654L95.764 39.2H113.812L95.482 105H77.716L67.188 67.87L56.66 105H38.894ZM136.122 106.316C129.166 106.316 123.244 103.935 118.356 99.172C113.468 94.3467 111.024 88.456 111.024 81.5C111.024 74.544 113.468 68.6847 118.356 63.922C123.244 59.0967 129.166 56.684 136.122 56.684C143.14 56.684 149.062 59.0967 153.888 63.922C158.776 68.6847 161.22 74.544 161.22 81.5C161.22 88.456 158.776 94.3467 153.888 99.172C149.062 103.935 143.14 106.316 136.122 106.316ZM136.122 91.276C138.879 91.276 141.135 90.3673 142.89 88.55C144.707 86.7327 145.616 84.3827 145.616 81.5C145.616 78.6173 144.707 76.2673 142.89 74.45C141.135 72.6327 138.879 71.724 136.122 71.724C133.427 71.724 131.171 72.6327 129.354 74.45C127.599 76.2673 126.722 78.6173 126.722 81.5C126.722 84.3827 127.599 86.7327 129.354 88.55C131.171 90.3673 133.427 91.276 136.122 91.276ZM183.686 66.742C184.564 63.6713 186.318 61.29 188.95 59.598C191.582 57.906 194.528 57.06 197.786 57.06V74.356C194.214 73.792 190.956 74.45 188.01 76.33C185.128 78.21 183.686 81.2807 183.686 85.542V105H168.082V58H183.686V66.742ZM250.136 105H232.652L219.304 84.978V105H203.7V39.2H219.304V77.646L231.43 58H249.478L233.686 81.5L250.136 105Z" fill="white"/>
<path d="M268.559 87.234C270.125 91.0567 273.635 92.968 279.087 92.968C282.471 92.968 285.322 91.8713 287.641 89.678L298.921 97.574C294.283 103.402 287.547 106.316 278.711 106.316C270.752 106.316 264.36 103.997 259.535 99.36C254.772 94.66 252.391 88.738 252.391 81.594C252.391 74.5127 254.741 68.5907 259.441 63.828C264.141 59.0653 270.125 56.684 277.395 56.684C284.413 56.684 290.21 59.034 294.785 63.734C299.359 68.434 301.647 74.3247 301.647 81.406C301.647 83.474 301.427 85.4167 300.989 87.234H268.559ZM268.371 76.424H286.419C285.165 72.0373 282.22 69.844 277.583 69.844C272.757 69.844 269.687 72.0373 268.371 76.424ZM326.628 90.524H344.206V105H305.76V94.284L322.398 72.476H306.7V58H343.266V68.716L326.628 90.524ZM370.874 90.524H388.452V105H350.006V94.284L366.644 72.476H350.946V58H387.512V68.716L370.874 90.524ZM405.407 106.316C402.65 106.316 400.3 105.376 398.357 103.496C396.477 101.553 395.537 99.2347 395.537 96.54C395.537 93.8453 396.509 91.558 398.451 89.678C400.394 87.7353 402.713 86.764 405.407 86.764C408.102 86.764 410.389 87.7353 412.269 89.678C414.212 91.558 415.183 93.8453 415.183 96.54C415.183 99.2347 414.212 101.553 412.269 103.496C410.389 105.376 408.102 106.316 405.407 106.316Z" fill="#69DEE6"/>
</svg>
